<svg enable-background="new 0 0 58 58" height="512" viewBox="0 0 58 58" width="512" xmlns="http://www.w3.org/2000/svg">
<g fill="#61b872">
<path d="m53.682 26.032c-.483 0-.908-.351-.986-.843-.303-1.899-.836-3.759-1.583-5.526-.215-.509.023-1.096.532-1.311.508-.216 1.095.021 1.311.531.81 1.917 1.388 3.933 1.716 5.991.087.545-.285 1.058-.83 1.145-.055.009-.108.013-.16.013z"/>
<path d="m48.795 14.733c-.299 0-.595-.134-.792-.389-1.258-1.63-2.724-3.095-4.355-4.354-.437-.338-.518-.966-.18-1.403.337-.438.966-.517 1.403-.181 1.766 1.364 3.353 2.95 4.716 4.715.337.438.257 1.065-.18 1.402-.183.142-.398.21-.612.21z"/>
<path d="m38.726 6.967c-.13 0-.262-.025-.389-.079-1.766-.747-3.626-1.28-5.527-1.584-.545-.087-.917-.6-.83-1.146.087-.545.6-.921 1.146-.829 2.06.329 4.075.907 5.99 1.717.509.215.747.802.531 1.311-.161.381-.531.61-.921.61z"/>
<path d="m32.967 54.684c-.483 0-.908-.351-.986-.842-.087-.546.284-1.059.83-1.146 1.901-.304 3.761-.837 5.527-1.584.509-.214 1.095.021 1.311.531.215.509-.023 1.096-.531 1.311-1.915.81-3.93 1.388-5.99 1.717-.055.009-.109.013-.161.013z"/>
<path d="m44.267 49.795c-.299 0-.595-.134-.792-.389-.338-.438-.257-1.065.18-1.402 1.63-1.26 3.095-2.725 4.354-4.356.338-.437.965-.517 1.403-.181.437.338.518.966.181 1.403-1.363 1.766-2.949 3.353-4.714 4.716-.183.141-.398.209-.612.209z"/>
<path d="m52.033 39.727c-.13 0-.262-.025-.389-.079-.509-.215-.747-.802-.532-1.311.748-1.768 1.28-3.627 1.583-5.526.087-.545.599-.917 1.145-.83.545.087.917.6.83 1.145-.328 2.059-.906 4.074-1.716 5.991-.161.38-.531.61-.921.61z"/>
<path d="m5.967 39.727c-.39 0-.76-.229-.922-.61-.81-1.917-1.388-3.933-1.716-5.991-.087-.545.285-1.058.83-1.145.546-.087 1.058.285 1.145.83.303 1.899.836 3.759 1.583 5.526.215.509-.023 1.096-.532 1.311-.126.053-.258.079-.388.079z"/>
<path d="m13.74 49.801c-.213 0-.428-.068-.61-.208-1.766-1.364-3.353-2.95-4.716-4.715-.337-.438-.257-1.065.18-1.402.438-.338 1.065-.258 1.403.18 1.258 1.63 2.724 3.095 4.355 4.354.437.338.518.966.18 1.403-.197.254-.492.388-.792.388z"/>
<path d="m25.033 54.684c-.052 0-.106-.004-.159-.013-2.06-.329-4.075-.907-5.99-1.717-.509-.215-.747-.802-.531-1.311.215-.51.802-.745 1.311-.531 1.766.747 3.626 1.28 5.527 1.584.545.087.917.6.83 1.146-.08.491-.505.842-.988.842z"/>
<path d="m19.274 6.967c-.39 0-.76-.229-.921-.61-.215-.509.023-1.096.531-1.311 1.915-.81 3.93-1.388 5.99-1.717.544-.093 1.058.284 1.146.829.087.546-.284 1.059-.83 1.146-1.901.304-3.761.837-5.527 1.584-.127.053-.259.079-.389.079z"/>
<path d="m9.199 14.741c-.213 0-.428-.068-.61-.208-.437-.338-.518-.966-.181-1.403 1.363-1.766 2.949-3.353 4.714-4.716.437-.338 1.065-.257 1.403.18.338.438.257 1.065-.18 1.402-1.63 1.26-3.095 2.725-4.354 4.356-.197.255-.493.389-.792.389z"/>
<path d="m4.318 26.032c-.052 0-.105-.004-.159-.013-.545-.087-.917-.6-.83-1.145.328-2.059.906-4.074 1.716-5.991.215-.508.802-.747 1.311-.531.509.215.747.802.532 1.311-.748 1.768-1.28 3.627-1.583 5.526-.079.493-.504.843-.987.843z"/>
</g>
<circle cx="4" cy="29" fill="#ebba16" r="4"/>
<circle cx="54" cy="29" fill="#ebba16" r="4"/>
<circle cx="29" cy="54" fill="#ebba16" r="4"/>
<circle cx="29" cy="4" fill="#ebba16" r="4"/>
<circle cx="29" cy="29" fill="#57abc1" r="17"/>
<path d="m16 30c-.552 0-1-.447-1-1 0-7.72 6.28-14 14-14 .552 0 1 .447 1 1s-.448 1-1 1c-6.617 0-12 5.383-12 12 0 .553-.448 1-1 1z" fill="#2d6d77"/>
<path d="m29 43c-.552 0-1-.447-1-1s.448-1 1-1c6.617 0 12-5.383 12-12 0-.553.448-1 1-1s1 .447 1 1c0 7.72-6.28 14-14 14z" fill="#2d6d77"/>
<path d="m34 31-5-2-5 2 5-10z" fill="#3a808c"/>
<path d="m34 31-5-2-5 2 5 6z" fill="#2d6d77"/>
</svg>